# xmcd
#
# Track frame offsets:
# 150
# 16289
# 32667
# 46688
# 60435
# 76756
# 93941
# 112049
# 126684
# 143997
# 156226
# 174797
# 191330
# 203953
# 216879
# 233720
# 251576
# 263595
# 281057
# 291801
#
# Disc length: 4046 seconds
#
#
# Revision: 0
# Processed by: cddbd v1.5.1PL2 Copyright (c) Steve Scherf et al.
# Submitted via: FreeRIP 2.943 
#
DISCID=160fcc14
DTITLE=Various Artist - Country Club
DYEAR=2002
DGENRE=Country
TTITLE0=Patty Loveless - Blame It On Your Heart
TTITLE1=Alan Jackson - Here In The Real World
TTITLE2=Vince Gill - Don't Come Cryin' To Me
TTITLE3=The Derailers - More Of Your Love
TTITLE4=Braid Paisley - Part Two
TTITLE5=Dixie Chicks - Hello Mr. Heartache
TTITLE6=Lonestar - Amazed
TTITLE7=Brooks and Dunn - Honky Tonk Truth
TTITLE8=Kenny Chesney - You Had Me From Hello
TTITLE9=Danni Leigh - If The Jukebox Took Teardrops
TTITLE10=Tracy Byrd - Keeper Of The Stars
TTITLE11=Mark Chesnutt - Too Cold At Home
TTITLE12=Clint Black - Summer's Comin'
TTITLE13=Pam Tillis - Mi Vida Loca
TTITLE14=Aaron Tippin - Whole Lotta Love On The Line
TTITLE15=Michelle Wright - Take It Like A Man
TTITLE16=Restless Heart - You Can Depend On Me
TTITLE17=Sara Evans - The Great Unknown
TTITLE18=Diamond Rio - Unbelievable
TTITLE19=Martina McBride - My Baby Loves Me
EXTD=Best of Nashville and New Country\nCD 1
EXTT0=
EXTT1=
EXTT2=
EXTT3=
EXTT4=
EXTT5=
EXTT6=
EXTT7=
EXTT8=
EXTT9=
EXTT10=
EXTT11=
EXTT12=
EXTT13=
EXTT14=
EXTT15=
EXTT16=
EXTT17=
EXTT18=
EXTT19=
PLAYORDER=
